<svg width="177" height="42" viewBox="0 0 177 42" fill="none" xmlns="http://www.w3.org/2000/svg">
<g clip-path="url(#clip0_63_383)">
<path d="M37.1805 11.8138C37.1578 11.3895 36.9011 11.1959 36.8784 10.7791H36.2742C36.1609 11.5532 36.5914 11.7468 37.1805 11.8138Z" fill="#39281C"/>
<path d="M35.2169 15.2084C34.6655 15.5062 34.0236 15.7071 34.016 16.5409C34.7939 15.5731 36.8029 15.9081 37.3315 16.8387C37.105 16.0421 35.9797 15.0521 35.6776 15.6476C35.4132 15.6253 35.8664 15.1563 35.2169 15.2084Z" fill="#39281C"/>
<path d="M37.3466 19.8238C37.6865 18.9975 38.0868 17.3226 36.4177 17.1514V17.7469C35.3906 18.0223 33.1702 17.2928 32.2035 18.201C32.3394 18.0596 32.5509 19.1464 32.2412 18.9677C32.6793 19.2655 33.3967 18.9677 33.8574 19.2432C34.7486 19.7345 34.2199 21.0744 35.8135 21.0223C35.8815 20.7395 36.244 20.7543 36.108 20.2854C35.9343 20.263 35.6776 20.3077 35.6474 20.1365C36.2666 19.8983 36.5612 19.5112 37.3466 19.8238Z" fill="#39281C"/>
<path d="M48.7734 20.2703C45.0652 21.722 40.8887 23.3001 36.7122 23.8287C36.8029 25.0718 37.9206 25.3101 38.3662 26.2034C38.3058 25.7865 38.4191 25.3622 38.6683 25.0197C42.3312 23.784 45.4353 21.9974 48.9018 20.5681C48.9396 20.382 49.1511 20.2629 48.7734 20.2703Z" fill="#39281C"/>
<path d="M40.7905 11.6649C40.7603 11.8361 40.6244 11.8957 40.4884 11.9627C40.4431 11.6947 40.9491 11.0173 40.6395 11.3746C40.3752 11.5086 40.3903 11.918 40.0353 11.9627C40.1033 11.717 40.7377 11.2927 40.3374 11.0694C40.3676 11.4044 39.8238 11.9329 39.7332 11.6649C41.3041 9.16369 37.9131 13.0347 36.2742 11.9627C36.5083 12.3275 35.7606 12.4168 35.8135 12.1116C36.3875 11.9329 35.8135 11.0843 35.6625 10.928C35.4283 11.1959 35.4132 11.6649 34.7637 11.516C34.8921 11.2555 35.2622 11.062 34.7637 10.928C34.3483 11.1587 34.6504 11.0768 33.5553 11.2257C33.6082 11.7543 33.797 11.9329 34.016 11.9627C33.646 12.3424 33.5176 12.9528 32.8076 12.9974C32.7246 12.5061 32.5207 12.052 32.2035 11.6649C31.7428 11.5533 31.9165 12.0744 31.4482 11.9627C31.0555 11.7543 30.3531 11.0768 30.0963 11.2257C30.3984 11.6798 31.199 11.6203 31.2972 12.2605C30.7383 12.5136 30.557 12.3796 30.0963 12.5582C30.4891 12.5136 30.5872 12.7667 30.557 13.1538C30.187 13.1538 30.0963 12.923 29.8093 12.856C30.8365 13.6227 31.9769 14.2778 32.5207 15.5285C33.5931 15.3051 34.5825 14.7915 35.3755 14.0471C35.5718 13.3696 34.9978 12.5136 35.5265 12.4168C36.4555 13.8833 38.5626 13.6674 38.2378 16.124C38.9175 15.6029 39.2876 14.7766 39.7408 14.0471C39.197 13.6972 38.1019 14.5012 38.2378 13.3101C39.3103 13.6451 40.9869 12.5657 40.7905 11.6649ZM22.1285 14.9255C21.9171 14.4714 21.4337 14.3299 21.2298 13.8907H21.3809C21.4262 13.5855 20.9428 13.9205 20.9202 14.0396C21.2525 14.5309 23.5408 15.8113 22.1285 14.9255Z" fill="#39281C"/>
<path d="M21.3733 13.8907C21.3733 14.0694 21.5923 13.9801 21.3733 13.8907V13.8907ZM21.5244 15.0818C20.7767 14.7766 21.0637 13.9205 20.316 14.3448C20.5652 14.5012 19.7949 14.9106 19.7118 15.2381C19.3795 14.6277 19.4021 15.2902 19.8628 15.387C20.1347 14.6203 20.6483 15.119 20.6105 14.4937C20.8144 14.7021 21.2223 15.454 21.5244 15.0818ZM23.9336 12.8486C23.5937 12.7816 23.1783 12.0222 22.8838 12.3945C23.1632 12.4317 22.8007 12.6401 23.0348 12.6922C23.2312 12.1786 23.7825 13.325 23.9336 12.8486ZM29.3562 12.9974C28.9257 12.9974 28.5707 12.2084 28.3064 12.5433C28.6463 12.6103 28.9333 13.4962 29.3562 12.9974ZM23.6315 13.4441C23.1708 13.2952 22.7025 12.3945 22.2796 12.7071C22.7025 12.8709 23.3445 13.6227 23.6315 13.4441ZM22.8762 13.7419C22.4835 13.4813 22.1285 13.0942 22.1285 12.856C22.1285 13.0495 21.8642 12.99 21.8264 13.1538C22.0379 13.3845 23.1255 14.0322 22.8762 13.7419ZM29.0541 13.8907C28.8426 13.5483 28.0874 12.9751 27.8457 13.1538C27.9666 13.5334 28.5934 13.4069 28.5934 13.8907C27.9137 14.0173 27.7022 12.9007 27.2415 13.2952C27.5059 13.3324 27.5814 13.5483 27.5436 13.8907C28.2384 13.9428 28.4121 14.0694 29.0541 13.8907ZM22.5817 14.3374C22.1437 14.2108 21.7509 13.2878 21.3733 13.6004C21.7585 13.7716 22.2871 14.5682 22.5817 14.3374ZM27.8457 14.3374C27.3473 14.1885 27.1433 13.7419 26.6373 13.6004C26.7959 13.995 27.5512 14.5756 27.8457 14.3374ZM26.0407 14.4863C26.4561 14.516 26.8639 14.6203 27.2491 14.784C27.1962 14.2406 26.2899 13.7567 26.0407 13.8684C26.4938 13.9875 25.8972 14.2034 26.0407 14.4863ZM1.20083 31.9875C0.740136 31.861 0.62685 32.1141 0.453144 32.2853C0.445592 32.1215 0.498459 31.9577 0.604192 31.8312C-0.0528668 32.0545 0.226572 32.3225 0 33.0222C0.62685 32.9925 0.740136 33.4763 1.35188 33.4763C1.52559 32.5607 3.05117 32.1885 2.85481 31.3994C2.15244 31.0421 0.966708 31.2654 1.20083 31.9875ZM17.6575 6.722C17.7028 6.67733 17.7481 6.63267 17.7935 6.588L17.6575 6.722ZM34.7033 9.80389C34.8317 8.68726 32.0751 7.82374 31.0555 7.62274C29.4619 7.31009 28.2384 6.54334 26.6902 6.32746C24.7266 6.05947 19.5758 4.95773 17.801 6.58056C18.6469 5.71704 21.8567 6.66245 23.1783 6.71456C24.2281 6.75178 27.7551 6.56567 27.8155 7.86096C29.0163 7.87585 30.2096 8.09917 31.3349 8.53093C32.43 8.96269 33.5402 9.58056 34.7033 9.80389Z" fill="#39281C"/>
<path d="M43.4188 24.5212C41.8177 32.1887 35.3528 37.9356 27.4605 38.7246C27.4077 37.34 27.453 35.9554 27.5965 34.5708C27.8457 33.4318 28.0949 32.3822 29.1976 32.1365C30.8138 31.7867 32.8152 33.5435 35.0658 32.5906C36.3648 31.742 36.2515 29.5088 38.0792 29.1812C38.4644 27.2383 36.1383 27.9753 35.519 27.4021C36.6594 27.3127 37.5354 27.4988 38.0792 27.9976C38.5399 27.7296 38.7589 26.7395 38.2303 26.3673C37.1654 26.7544 36.8406 26.2333 35.9721 26.0695C35.8588 26.4045 35.5567 26.4045 35.0432 26.6651C35.3981 26.0398 35.2244 26.144 34.7486 25.7718C35.1791 25.6303 34.8468 25.2805 35.0432 25.1762C35.0432 25.2656 35.0658 25.3549 35.1942 25.3251C35.1262 24.9604 34.7713 24.7222 34.4012 24.7891C34.2426 24.8189 34.0991 24.9008 33.9934 25.0274C33.8046 24.5509 34.4541 24.9157 34.2955 24.4318C33.8348 24.2978 34.0916 24.9231 33.6913 24.8859C32.9965 24.4765 32.0297 24.8189 32.1883 23.8512C32.143 24.2011 31.6295 23.8512 31.5842 23.7023C31.9995 23.3078 31.4104 23.3748 31.4331 22.9653C31.6295 22.9653 31.6446 23.1589 31.8938 23.1142C31.8711 22.9058 31.924 22.6973 32.0449 22.5261C31.7503 22.4815 31.7503 22.7271 31.5842 22.8239C31.7503 22.2581 31.9844 22.3698 31.4331 22.0869C31.6144 21.9157 31.773 21.7147 31.8938 21.4914C31.1084 21.4244 31.35 20.345 30.844 20.01C31.2443 19.273 31.8032 19.1911 32.0449 18.6775C31.9165 18.9455 31.4407 17.8661 32.1959 17.9405C31.3953 17.7023 32.1204 16.407 32.3469 15.8636C32.1355 15.3351 31.9542 14.7693 31.418 14.5311C30.9875 14.6427 30.2927 14.9852 30.0661 14.8289C30.0359 15.0373 30.0888 15.2532 30.2172 15.4244C30.1265 15.3797 29.6356 15.0596 29.6205 15.4244C29.983 15.8785 30.2851 16.3772 30.5193 16.9058C29.6205 16.1092 29.4544 15.3127 28.5632 15.1266C28.6236 15.4393 28.7218 15.737 28.8653 16.0199C28.601 15.5658 28.4046 16.4293 28.2611 16.0199C28.6991 16.1018 28.0345 15.4467 28.11 15.871C28.6463 16.2209 27.4077 16.0571 27.3624 16.3251C27.4454 16.3251 27.5361 16.4442 27.3624 16.474C27.1056 16.1837 27.015 15.737 26.6147 15.5807C26.6902 16.0944 26.8488 16.5931 27.0754 17.0621C26.7582 16.876 26.4938 16.6527 26.1691 16.4666C26.0256 16.742 26.6298 16.9579 26.1691 17.0621C26.1389 16.9058 25.9199 16.7048 25.867 16.9132C26.0407 16.943 26.0331 17.144 26.018 17.3673C25.0891 17.3971 24.9682 17.6353 24.3641 17.9628C24.2508 17.5832 24.213 17.1217 23.9034 16.9281C23.5031 17.3822 23.9411 17.881 24.0544 18.2606C23.4125 18.1117 22.8385 18.1266 22.7025 17.8065C21.0863 17.6502 20.6105 19.3996 19.8402 19.5857C20.1272 18.7221 20.6483 17.9554 21.3506 17.3599C20.4217 16.943 20.6181 16.7941 19.9988 16.4666C20.1649 16.474 20.3311 16.4219 20.4595 16.3177C20.7162 16.6452 21.8491 16.8686 21.2147 17.211C21.6074 17.5757 21.9548 17.0621 22.5666 17.211C22.6119 16.9207 22.3627 16.9207 22.2645 16.7569C23.2463 17.5311 23.4804 16.0497 24.6737 16.1688C24.6737 15.5658 25.3081 15.603 25.4214 15.1266C25.2628 15.6477 25.9274 15.2532 26.0256 15.1266C25.5875 14.9107 24.5 14.1812 24.3716 14.0919C24.5151 14.546 25.1042 14.546 25.1193 15.1266C24.8701 15.4318 24.4094 15.5137 24.0695 15.7222C24.0695 15.1713 23.5031 14.6353 23.6088 14.8363C23.6088 15.0001 23.8278 15.0671 23.6088 15.1341C23.5182 15.0075 22.8007 14.68 23.1481 14.9852C23.3747 15.2085 23.7825 15.2532 23.8958 15.5807C23.5182 15.737 23.3671 14.9405 23.1481 15.4318C23.3294 15.6775 23.6013 15.8413 23.8958 15.8859C23.8354 16.0646 23.7372 16.2209 23.5937 16.34C23.4125 16.2805 23.2539 16.1762 23.133 16.0422C23.4125 15.7817 23.0953 15.5882 22.8309 15.4542V15.6775C22.3929 16.005 23.065 15.4914 22.982 15.8264C22.8309 15.8264 22.8007 15.9455 22.6799 15.9753C22.1588 15.9306 22.6799 15.5733 22.3778 15.5212C22.189 15.9083 21.6603 15.5882 21.6301 15.8189C21.8491 16.0944 22.408 16.0348 22.3778 16.5559C21.8416 16.1018 21.0259 15.9083 20.7238 15.2234C20.9277 15.2234 21.1845 15.8264 21.328 15.3723C21.0334 15.1341 20.6256 15.082 20.2782 15.2234C20.603 15.8934 22.1361 16.139 21.9322 16.8537C21.4186 16.8834 21.9322 16.3549 21.328 16.2656C21.0561 16.6601 21.9926 16.5559 21.479 16.7197C20.7993 16.4517 20.3688 15.938 19.8251 15.536C19.6287 15.9083 20.4217 15.9901 19.9761 16.1316C19.9308 15.8189 19.5758 16.3475 19.3719 15.9827C18.9112 16.9355 17.0911 17.5534 16.9627 17.613C16.502 17.8512 14.4402 21.1936 14.2514 19.2432C14.1154 17.8363 16.57 16.2135 17.5669 15.5286C17.3856 15.469 17.227 15.3723 17.1062 15.2308C18.1786 15.0224 18.2768 14.0993 19.3644 13.4442C19.2511 13.4145 19.0623 13.4442 19.0623 13.2954C19.4399 13.2954 19.523 13.0199 19.81 13.2954C19.8553 13.005 19.606 13.005 19.5079 12.8413C20.2933 12.9083 19.9686 12.1862 20.8597 11.7991C20.4595 11.5385 20.7162 11.211 20.2555 11.211C20.4897 10.9132 21.1165 11.3226 20.7162 11.6651C21.1014 11.7767 21.4186 11.0993 21.1769 11.0695C20.8069 11.4194 20.3462 10.6155 19.9686 10.474C19.8326 10.9281 20.467 10.675 20.4293 11.0695C20.0969 11.2035 19.7344 11.2556 19.3795 11.2184C19.5456 11.3226 20.1574 11.7097 19.8402 11.8065C19.8402 11.546 18.8357 11.0993 19.236 11.3524C19.961 11.9628 19.236 12.3202 19.236 11.5013C18.7375 11.9554 18.5789 11.0472 18.3372 11.3524C18.6469 11.3971 18.6393 11.747 18.7979 11.9405C18.0956 11.5162 18.7073 12.5063 18.1937 12.536C18.6544 12.2681 17.7028 12.0224 17.733 12.2383C18.1635 12.9231 17.3403 11.9926 17.2723 12.3872C17.5216 12.536 17.6198 12.7817 17.4234 12.9753C17.2119 12.9455 17.1742 12.7296 16.9627 12.6775C16.57 13.2209 16.1168 13.7197 15.6108 14.1663C15.9658 11.6279 18.2768 10.9653 18.3221 8.37476C17.9747 8.45664 17.6122 8.45664 17.2723 8.37476C17.3479 9.11917 16.3056 8.15887 16.8117 8.82885C16.3812 8.9554 16.4189 8.62041 16.0564 8.67997C16.0035 8.93307 16.2754 9.05962 16.0564 9.13406C15.8223 8.88096 15.4975 8.72463 15.1577 8.67997C14.2287 8.94796 14.9387 10.1092 14.41 10.608H13.8058C13.5641 11.6204 12.756 12.4765 12.8995 13.4293C12.9448 13.6973 13.3375 13.9058 13.3602 14.1663C13.3602 14.2408 12.9901 14.3301 13.0581 14.6204L13.0883 14.747L13.0581 14.7693C12.756 15.0001 13.1714 15.4839 13.5188 15.7743V16.1092C13.1789 15.7743 12.7711 16.1092 12.469 16.2581C12.1216 15.8338 12.8995 14.6353 12.1669 14.3301C12.1669 14.5013 12.1971 14.7544 12.0159 14.7842C12.0008 14.7023 11.9252 14.6502 11.8422 14.6651C11.7818 14.6725 11.7289 14.7246 11.7213 14.7842C12.5748 15.4393 11.9781 17.6874 10.8226 17.7544C11.1549 18.3351 10.3619 18.67 10.0749 18.6477C10.5129 19.5857 9.584 19.4889 9.32722 19.6824C10.883 20.0547 10.2109 21.9678 9.47827 22.7941C9.01757 22.0199 8.86652 22.943 8.54932 22.206C8.54932 22.608 8.30009 22.5038 8.54932 22.7941C8.33785 22.742 8.30009 22.6155 8.08862 22.7941C8.04331 23.0844 8.29254 23.0844 8.39072 23.2482C7.98289 23.2482 8.08863 23.0025 7.78653 23.2482C7.71856 23.8586 8.18681 23.1068 8.24723 23.7023C8.0131 24.1266 7.54485 23.3896 7.31828 23.8512C7.45422 23.8958 7.97534 24.2532 7.62038 24.3053C7.26541 24.3574 7.28807 24.0373 6.87269 24.1564C8.95715 24.9157 7.12947 26.5013 7.02374 27.7147C6.81227 27.2978 6.50262 26.9405 6.11745 26.68C5.98906 27.1341 5.73983 26.4864 5.36976 26.68C5.36976 27.2234 4.59941 27.2457 5.21871 27.5658C4.91662 27.8115 5.0299 27.5658 4.61452 27.5658C4.44081 28.0199 4.84864 27.9306 4.91662 28.1614C4.45592 28.2507 4.45592 27.8859 4.16893 28.1614C4.5692 28.7941 3.82152 28.4219 3.70823 28.8983C4.20669 28.8983 4.32753 29.2705 4.60697 29.4864C4.2369 29.6204 4.14627 30.4467 3.70823 30.082C3.82152 30.4616 3.11914 30.7668 3.55718 30.9678C6.17787 27.0224 13.8209 28.0199 14.6894 22.3549C14.8858 23.4715 15.6184 24.0522 15.2936 25.3251C14.5459 25.4815 14.3043 26.1365 14.3873 27.1117C14.0928 27.0671 14.0928 27.3127 13.9266 27.4095C13.8964 27.1936 13.9795 26.8586 13.7756 26.814C13.7454 27.3797 13.5037 27.4914 13.4735 27.7296C13.3224 27.7296 13.2922 27.6105 13.1714 27.5807C10.7697 29.4864 13.9719 31.1018 15.4296 31.8834C15.3163 32.278 15.1275 32.6427 14.8631 32.9628L14.4629 33.2532C14.2363 33.6626 13.9191 34.0125 13.5339 34.2879C13.2394 34.0274 12.9599 33.7668 12.688 33.4914C11.3437 32.1514 10.226 30.603 9.37253 28.9207L9.30456 28.9504C8.33785 29.2929 7.3938 29.7097 6.48752 30.1936C11.6307 40.6006 24.3716 44.9331 34.9299 39.8561C41.5911 36.6552 46.0848 30.2606 46.7871 22.9877L45.5712 23.5534C44.9066 23.8437 44.1665 24.1862 43.4188 24.5212Z" fill="#39281C"/>
<path d="M5.56612 24.8114H5.6643C5.14319 24.1265 5.27913 23.1513 5.97395 22.6377C6.05703 22.5781 6.14011 22.526 6.23073 22.4814C6.2836 22.4144 6.34402 22.3548 6.41199 22.3027C6.47996 22.1613 6.57059 22.0273 6.68388 21.9156C6.77451 21.7146 6.9029 21.5434 7.0615 21.3945L7.12947 21.3424C7.22765 21.1265 7.37115 20.933 7.5524 20.7766C7.60527 15.6625 9.8861 10.8163 13.8133 7.47391L13.904 7.39947C21.4262 1.04215 32.7397 1.83868 39.2725 9.18607C39.4538 9.39451 39.635 9.60294 39.8087 9.81138C40.1259 10.2059 40.4356 10.6079 40.7377 11.0248V11.0471C40.9944 11.4193 41.2286 11.8064 41.4551 12.201C41.6062 12.4689 41.7572 12.7369 41.8932 13.0124C43.0185 15.2605 43.6529 17.7096 43.7511 20.2109C44.7858 19.8536 45.8129 19.4739 46.8325 19.0868C45.7827 7.56324 35.451 -0.945443 23.7523 0.0818527C12.0536 1.11659 3.42124 11.3002 4.46347 22.8312C4.53144 23.5533 4.62962 24.268 4.77312 24.9752C5.02235 24.8635 5.29424 24.8114 5.56612 24.8114Z" fill="#6F4936"/>
</g>
<g clip-path="url(#clip1_63_383)">
<path d="M86.8011 6.32983C84.9245 6.32983 85.9885 6.49481 84.7955 6.49481C84.2861 6.49481 83.5638 6.32983 82.4933 6.32983C82.2805 6.32983 81.4744 6.36791 81.4744 7.1674C81.4744 7.87806 82.1515 8.12552 82.661 9.51511C83.2994 11.2347 83.3832 14.5468 83.3832 16.1395C83.3832 18.8996 83.1704 21.7994 82.2611 21.7994C81.4937 21.7994 80.4684 19.826 80.4684 15.0925V8.01131C80.4684 6.62806 79.9589 6.35521 79.3205 6.35521C77.7019 6.35521 78.3403 6.52019 77.2311 6.52019C76.4637 6.52019 76.3412 6.35521 75.6512 6.35521C74.7612 6.35521 74.5291 6.85648 74.5291 7.31968C74.5291 8.11283 75.1288 8.03034 75.548 9.75623C76.2702 12.7702 75.8446 16.0824 76.612 21.3489C77.3794 26.6154 79.4172 27.7194 80.8682 28.5253C81.0875 28.6522 81.3777 28.7727 81.3777 28.9885C81.0488 30.2892 80.391 31.4885 79.4559 32.4656C78.5209 33.4301 76.8958 34.0202 76.8958 34.8133C76.8958 35.7778 77.6567 35.7334 78.0179 35.7334C78.4435 35.727 78.8755 35.7017 79.2947 35.6509C79.7203 35.6128 80.1846 35.5684 80.6554 35.5684C82.0612 35.5684 82.403 35.7334 82.8996 35.7334C84.6472 35.7334 86.2658 27.3451 86.6463 24.9973C87.5362 19.293 87.7104 10.5367 87.7104 7.85268C87.7748 6.44405 87.1816 6.32983 86.8011 6.32983Z" fill="#39281C"/>
<path d="M130.62 7.25623C130.62 6.91994 130.537 6.33618 129.64 6.33618C126.409 6.33618 129.466 6.62806 124.823 6.62806C120.947 6.62806 122.05 6.33618 120.173 6.33618C119.155 6.33618 119.051 6.88821 119.051 7.38314C119.051 7.7575 119.09 8.0938 119.09 8.4872C119.135 8.98847 119.135 9.48974 119.135 9.99735C119.148 10.7968 119.122 11.5963 119.051 12.3895C118.948 13.1001 118.897 13.8171 118.884 14.5342C118.884 15.4986 119.393 15.5367 119.645 15.5367C120.115 15.5367 120.244 15.0735 120.457 14.7435C120.625 14.3565 121.012 14.109 121.437 14.1154C122.244 14.1154 122.327 14.7816 122.327 15.6699V31.3806C122.327 33.227 122.115 33.5887 121.818 34.3184C121.734 34.5659 121.347 35.7017 122.663 35.7017C123.172 35.7017 123.688 35.5367 124.752 35.5367C125.165 35.5303 125.578 35.543 125.984 35.5811C126.358 35.6446 126.732 35.6826 127.106 35.708C127.493 35.7461 127.835 35.4732 127.873 35.0925C127.88 35.0481 127.88 34.9974 127.873 34.9529C127.809 34.4453 127.667 33.9504 127.448 33.4872C127.183 32.472 127.041 31.4314 127.028 30.3844V16.2727C127.028 14.6166 127.364 14.09 128.047 14.09C128.447 14.1027 128.815 14.3121 129.028 14.642C129.279 15.0608 129.369 15.524 130.001 15.524C130.298 15.524 130.724 15.359 130.724 14.6039C130.724 13.4999 130.511 12.9479 130.511 10.1179C130.556 7.92882 130.62 8.84887 130.62 7.25623Z" fill="#39281C"/>
<path d="M146.149 27.9734V11.2792C146.149 8.38584 146.916 7.41503 146.916 6.74879C146.916 6.28559 146.278 6.33001 146.149 6.33001C143.847 6.33001 144.872 6.49498 143.383 6.49498C142.061 6.49498 142.873 6.33001 141.377 6.33001C140.7 6.33001 140.526 6.62189 140.526 6.88204C140.577 7.18026 140.693 7.46579 140.868 7.7196C141.164 8.25894 141.313 8.86808 141.287 9.48356C141.287 10.8668 140.906 11.6917 139.41 14.2678C138.901 15.1435 137.488 17.8275 137.488 16.7424V11.165C137.456 10.2133 137.604 9.26148 137.914 8.35412C138.172 7.80209 138.552 7.35158 138.552 6.88838C138.552 6.58381 138.307 6.33635 137.998 6.33001C137.972 6.33001 137.94 6.33001 137.914 6.33635C137.54 6.35539 137.166 6.3998 136.792 6.46326C136.231 6.52036 135.67 6.5394 135.109 6.50767C133.832 6.50767 133.987 6.3427 132.865 6.3427C132.613 6.3427 131.975 6.29828 131.975 6.89473C131.975 7.49118 132.742 7.35793 132.742 11.8059V28.2716C132.781 29.9341 132.665 31.5965 132.4 33.2399C132.233 33.83 132.104 34.4328 132.02 35.0419C132.02 35.6701 132.581 35.7145 132.91 35.7145C134.27 35.7145 133.974 35.5496 135.212 35.5496C136.895 35.5496 135.896 35.7145 137.514 35.7145C138.282 35.7145 138.449 35.2957 138.449 34.9214C138.449 34.3693 138.062 33.7475 137.811 32.9924C137.527 31.9645 137.398 30.9049 137.43 29.8452C137.43 28.0432 138.153 26.7044 138.965 25.0229C140.758 21.4633 141.138 21.1587 141.306 21.1587C141.474 21.1587 141.48 21.33 141.48 21.4506C141.48 22.2437 141.39 22.3325 141.39 23.1067V29.7691C141.416 31.0381 141.287 32.3008 141.009 33.5381C140.81 33.995 140.655 34.4772 140.545 34.9658C140.519 35.3592 140.816 35.7018 141.216 35.7272C141.261 35.7336 141.313 35.7272 141.358 35.7209C142.093 35.6257 142.834 35.5686 143.576 35.5559C144.085 35.5559 144.64 35.6003 145.156 35.6384C145.466 35.6891 145.782 35.7145 146.091 35.7209C146.304 35.7209 146.942 35.7209 146.942 35.1371C146.846 34.4645 146.671 33.8046 146.433 33.1638C146.362 32.6181 146.149 31.4442 146.149 27.9734Z" fill="#39281C"/>
<path d="M163.026 7.33872C163.084 6.84379 162.716 6.39329 162.213 6.33618C162.174 6.32983 162.129 6.32983 162.09 6.32983C161.284 6.32983 160.601 6.49481 159.408 6.49481C159.111 6.50115 158.814 6.48846 158.518 6.45039C158.105 6.39963 157.692 6.37425 157.28 6.36791C156.435 6.36791 156.345 6.91994 156.345 7.20547C156.345 7.491 156.557 7.78922 156.809 8.30953C157.17 8.95039 157.364 9.6674 157.37 10.4034C157.37 11.9961 156.519 12.3768 156.054 12.3768C155.59 12.3768 154.603 12.2055 154.603 10.5748C154.61 9.91486 154.739 9.26131 154.984 8.63948C155.255 8.16359 155.429 7.6306 155.493 7.08491C155.493 6.74862 155.319 6.32983 154.642 6.32983C154.255 6.32983 153.83 6.45674 152.398 6.45674C150.438 6.45674 150.483 6.32983 149.709 6.32983C148.774 6.32983 148.735 6.95801 148.735 7.2943C148.735 9.01384 149.625 9.26765 149.625 12.7829V29.0963C149.651 30.4479 149.509 31.7994 149.199 33.1192C148.993 34.1217 148.774 34.5024 148.774 34.8387C148.774 35.5938 149.283 35.6319 149.496 35.6319C150.18 35.6319 150.18 35.4669 151.843 35.4669C153.075 35.4669 153.423 35.5938 154.088 35.5938C154.339 35.5938 155.21 35.6826 155.21 34.8006C155.21 34.1725 154.365 33.2461 154.365 27.0024C154.365 20.9682 154.616 19.274 155.983 19.274C157.351 19.274 157.389 20.9301 157.389 22.8781V29.0836C157.389 32.8971 156.706 32.5164 156.706 34.826C156.706 35.1623 156.706 35.6192 157.557 35.6192C158.834 35.6192 158.447 35.4542 159.904 35.4542C161.652 35.4542 160.201 35.6192 162.078 35.6192C162.503 35.6192 163.096 35.4923 163.096 34.7435C163.096 34.1915 162.8 33.6395 162.503 32.2245C162.181 30.5367 162.032 28.8235 162.078 27.1103V15.4986C162.007 8.97577 163.026 8.4745 163.026 7.33872Z" fill="#39281C"/>
<path d="M69.0734 17.1928C68.2802 17.1674 67.4935 17.326 66.7712 17.6496C66.5197 17.8083 66.2489 17.9352 65.9651 18.024C65.6685 18.024 65.6685 17.4402 65.6685 17.2689V15.1306C65.6685 13.4047 66.1392 12.2372 68.0997 12.2372C68.8993 12.2372 69.6538 12.5735 70.1891 13.1573C70.6985 13.7093 70.6534 14.4136 71.4659 14.4136C72.2785 14.4136 72.1043 13.6204 72.1043 12.7575C72.1043 11.8946 72.0205 12.0024 72.0205 10.0354C72.0205 8.52527 72.1043 8.18898 72.1043 7.307C72.1043 6.93263 72.0205 6.34253 71.2531 6.34253C70.7823 6.34253 70.7823 6.46943 69.6732 6.5075C69.2927 6.5075 67.1581 6.55192 66.6874 6.55192C61.9991 6.55192 62.4699 6.3806 61.1092 6.3806C60.8577 6.3806 60.3031 6.46309 60.3031 6.96436C60.3031 7.46563 60.5159 7.88441 60.6836 9.02019C60.8383 10.3146 60.9157 11.6154 60.9028 12.9161V29.2232C60.8964 30.5938 60.7416 31.9517 60.4321 33.2842C60.258 34.2613 60 34.7182 60 35.0545C60 35.6382 60.6384 35.6826 60.8512 35.6826C61.3607 35.6826 61.8315 35.6001 62.3409 35.5557C63.0374 35.4986 63.7338 35.4859 64.4303 35.5113C66.9066 35.5113 66.2231 35.6763 67.8804 35.6763C72.401 35.6763 73.2909 32.491 73.2909 30.2702V21.9897C73.2909 17.6116 70.5244 17.1928 69.0734 17.1928ZM68.6091 29.3946C68.6091 29.9466 68.4801 31.241 67.0292 31.241C66.6035 31.241 65.5782 31.1585 65.5782 29.1408V24.4009C65.5782 22.472 66.5584 22.51 67.0292 22.51C67.4935 22.51 68.6091 22.51 68.6091 24.6928V29.3946Z" fill="#39281C"/>
<path d="M96.5516 27.5481C98.8538 27.1293 102.304 25.7017 102.304 17.0595C102.31 8.9377 100.053 6.33618 91.2765 6.33618C89.8256 6.33618 89.8256 7.12933 89.8256 7.51004C89.8256 8.84887 90.1286 9.44532 90.1286 14.8895V25.9999C90.1286 33.2968 89.4902 32.1166 89.4902 34.7626C89.4773 35.2638 89.8836 35.6826 90.393 35.6953C90.4446 35.6953 90.4962 35.6953 90.5478 35.689C90.8896 35.6636 91.2378 35.6255 91.5732 35.5621C92.0697 35.505 92.5663 35.4923 93.0628 35.5177C93.5723 35.5177 94.0882 35.5177 94.5976 35.5621C95.1007 35.6065 95.5327 35.689 96.0035 35.689C96.4033 35.7524 96.7773 35.4923 96.8418 35.0989C96.8483 35.0418 96.8547 34.991 96.8483 34.9339C96.8096 34.4072 96.571 33.9123 96.1711 33.5506C95.2038 32.2055 94.7202 30.5811 94.8105 28.9377C94.804 27.675 94.8427 27.8273 96.5516 27.5481ZM95.8745 14.1344C96.7257 14.1344 97.6221 15.6446 97.6221 18.4491C97.6221 21.9009 96.816 23.1001 96.0035 23.1001C94.7266 23.1001 94.8105 20.4986 94.8105 18.6141C94.8105 16.7359 94.6815 14.1344 95.8745 14.1344Z" fill="#39281C"/>
<path d="M117.658 33.4999C117.517 33.0367 117.304 31.9453 117.155 31.2283C116.388 27.4529 116.517 25.7778 115.924 18.6141C114.982 7.51004 115.879 6.32983 113.789 6.32983C111.061 6.32983 112.809 6.49481 110.552 6.49481C109.236 6.49481 108.508 6.36791 107.863 6.36791C105.644 6.36791 106.631 8.57603 106.115 14.5024C104.497 33.9123 103.6 32.8209 103.6 34.9339C103.6 35.6001 104.026 35.689 104.368 35.689C104.709 35.6636 105.051 35.6255 105.386 35.5621C105.696 35.524 106.012 35.5113 106.322 35.5177C107.94 35.5177 106.747 35.6826 108.366 35.6826C109.301 35.6826 109.559 35.0545 109.178 34.2994C108.914 33.8806 108.753 33.4111 108.708 32.9161C108.708 32.2435 108.965 30.8159 110.668 30.8159C112.158 30.8159 112.59 31.8184 112.59 32.7448C112.59 34.0456 111.951 33.8489 111.951 34.8006C111.958 35.2829 112.358 35.6699 112.841 35.6763C113.144 35.6509 113.441 35.6128 113.731 35.5494C114.253 35.4923 114.782 35.4796 115.311 35.505C116.994 35.505 116.201 35.6699 117.149 35.6699C117.955 35.6699 118.084 35.1179 118.084 34.8768C117.968 34.4136 117.826 33.9567 117.658 33.4999ZM110.874 26.3743C110.81 26.3806 110.739 26.3806 110.674 26.3806C109.314 26.3806 109.481 25.0798 109.481 23.7791C109.481 22.8146 109.907 15.0164 110.758 15.0164C111.397 15.0164 111.88 18.3666 111.88 21.4694L111.867 25.156C111.938 25.7651 111.487 26.3108 110.874 26.3743Z" fill="#39281C"/>
<path d="M171.377 6C165.16 6 165.16 12.3261 165.16 14.8896V29.0774C165.16 33.6079 167.462 35.9937 171.209 35.9937C176.819 35.9937 177 29.9594 177 28.6586V12.8147C177 10.5241 176.529 6 171.377 6ZM172.312 14.8515V28.2652C172.312 28.849 172.273 30.448 171.035 30.448C169.913 30.448 169.848 29.1536 169.848 28.4366V15.0546C169.848 14.1789 169.764 12.7069 171.08 12.7069C172.396 12.7069 172.312 14.1345 172.312 14.8515Z" fill="#39281C"/>
</g>
<defs>
<clipPath id="clip0_63_383">
<rect width="49" height="42" fill="white"/>
</clipPath>
<clipPath id="clip1_63_383">
<rect width="117" height="30" fill="white" transform="translate(60 6)"/>
</clipPath>
</defs>
</svg>
