<svg width="24" height="21" viewBox="0 0 24 21" fill="none" xmlns="http://www.w3.org/2000/svg">
<path d="M23.8034 12.8197L21.208 10.2433C22.2154 8.9862 22.7033 7.39056 22.5713 5.78449C22.4393 4.17843 21.6974 2.68402 20.4983 1.60855C19.2991 0.533073 17.7337 -0.0417195 16.124 0.00236006C14.5144 0.0464396 12.9828 0.70604 11.8441 1.84553C10.7055 2.98503 10.0464 4.5178 10.0024 6.12869C9.95831 7.73957 10.5327 9.30612 11.6073 10.5062C12.682 11.7063 14.1753 12.4488 15.7801 12.5809C17.3849 12.713 18.9794 12.2247 20.2355 11.2165L22.81 13.7929C22.8751 13.8585 22.9524 13.9106 23.0377 13.9462C23.1229 13.9817 23.2144 14 23.3067 14C23.3991 14 23.4905 13.9817 23.5758 13.9462C23.661 13.9106 23.7384 13.8585 23.8034 13.7929C23.9295 13.6624 24 13.4879 24 13.3063C24 13.1248 23.9295 12.9503 23.8034 12.8197ZM16.3109 11.2165C15.3423 11.2165 14.3955 10.9291 13.5902 10.3905C12.7849 9.85204 12.1572 9.08664 11.7866 8.19113C11.4159 7.29563 11.3189 6.31024 11.5079 5.35957C11.6968 4.40891 12.1632 3.53567 12.8481 2.85028C13.533 2.16489 14.4056 1.69813 15.3555 1.50903C16.3054 1.31993 17.2901 1.41699 18.1849 1.78792C19.0797 2.15885 19.8446 2.787 20.3827 3.59293C20.9208 4.39886 21.208 5.34638 21.208 6.31567C21.208 7.61545 20.692 8.86199 19.7736 9.78107C18.8553 10.7001 17.6097 11.2165 16.3109 11.2165Z" fill="white"/>
<rect y="19" width="20" height="1.5" rx="0.75" fill="white"/>
<rect y="15" width="20" height="1.5" rx="0.75" fill="white"/>
<rect y="11" width="8" height="1.5" rx="0.75" fill="white"/>
<rect y="7" width="8" height="1.5" rx="0.75" fill="white"/>
</svg>
