<svg width="24" height="24" viewBox="0 0 24 24" fill="none" xmlns="http://www.w3.org/2000/svg">
<path fill-rule="evenodd" clip-rule="evenodd" d="M12 4C7.58172 4 4 7.58172 4 12C4 16.4183 7.58172 20 12 20C16.4183 20 20 16.4183 20 12C20 7.58172 16.4183 4 12 4ZM2 12C2 6.47715 6.47715 2 12 2C17.5228 2 22 6.47715 22 12C22 17.5228 17.5228 22 12 22C6.47715 22 2 17.5228 2 12Z" fill="white"/>
<path fill-rule="evenodd" clip-rule="evenodd" d="M11.9998 18C10.2234 18 8.62826 18.7708 7.52821 19.9993C7.1598 20.4108 6.5276 20.4457 6.11615 20.0773C5.7047 19.7089 5.6698 19.0767 6.03821 18.6652C7.5016 17.0308 9.631 16 11.9998 16C14.3687 16 16.4981 17.0308 17.9615 18.6652C18.3299 19.0767 18.295 19.7089 17.8835 20.0773C17.4721 20.4457 16.8399 20.4108 16.4715 19.9993C15.3714 18.7708 13.7763 18 11.9998 18Z" fill="white"/>
<path fill-rule="evenodd" clip-rule="evenodd" d="M12 9C10.8954 9 10 9.89543 10 11C10 12.1046 10.8954 13 12 13C13.1046 13 14 12.1046 14 11C14 9.89543 13.1046 9 12 9ZM8 11C8 8.79086 9.79086 7 12 7C14.2091 7 16 8.79086 16 11C16 13.2091 14.2091 15 12 15C9.79086 15 8 13.2091 8 11Z" fill="white"/>
</svg>
