<svg width="24" height="24" viewBox="0 0 24 24" fill="none" xmlns="http://www.w3.org/2000/svg">
<path fill-rule="evenodd" clip-rule="evenodd" d="M16 20C16 18.8954 16.8954 18 18 18C19.1046 18 20 18.8954 20 20C20 21.1046 19.1046 22 18 22C16.8954 22 16 21.1046 16 20Z" fill="white"/>
<path fill-rule="evenodd" clip-rule="evenodd" d="M6 20C6 18.8954 6.89543 18 8 18C9.10457 18 10 18.8954 10 20C10 21.1046 9.10457 22 8 22C6.89543 22 6 21.1046 6 20Z" fill="white"/>
<path fill-rule="evenodd" clip-rule="evenodd" d="M2 3C2 2.44772 2.44772 2 3 2H3.76772C4.73225 2 5.55937 2.6884 5.73448 3.6369L7.98338 15.8185C8.08365 16.3616 7.72465 16.8831 7.18155 16.9834C6.63844 17.0836 6.11688 16.7247 6.01662 16.1815L3.76772 4H3C2.44772 4 2 3.55228 2 3Z" fill="white"/>
<path fill-rule="evenodd" clip-rule="evenodd" d="M4.5 6C4.5 5.44772 4.94772 5 5.5 5H19.7429C21.0291 5 21.9809 6.19648 21.6917 7.44972L19.8456 15.4497C19.6362 16.3572 18.8281 17 17.8968 17H7C6.44772 17 6 16.5523 6 16C6 15.4477 6.44772 15 7 15L17.8968 15L19.7429 7H5.5C4.94772 7 4.5 6.55228 4.5 6Z" fill="white"/>
</svg>
